<?xml version="1.0" encoding="utf-8"?>
<!-- Generator: Adobe Illustrator 19.2.1, SVG Export Plug-In . SVG Version: 6.00 Build 0)  -->
<svg version="1.1"
	 id="svg2" inkscape:version="0.48.4 r9939" sodipodi:docname="installer-background.svg" xmlns:cc="http://creativecommons.org/ns#" xmlns:dc="http://purl.org/dc/elements/1.1/" xmlns:inkscape="http://www.inkscape.org/namespaces/inkscape" xmlns:rdf="http://www.w3.org/1999/02/22-rdf-syntax-ns#" xmlns:sodipodi="http://sodipodi.sourceforge.net/DTD/sodipodi-0.dtd" xmlns:svg="http://www.w3.org/2000/svg"
	 xmlns="http://www.w3.org/2000/svg" xmlns:xlink="http://www.w3.org/1999/xlink" x="0px" y="0px" viewBox="0 0 320 200"
	 style="enable-background:new 0 0 320 200;" xml:space="preserve">
<style type="text/css">
	.st0{display:none;fill:#FFFFFF;}
	.st1{fill:#FFFFFF;}
</style>
<sodipodi:namedview  bordercolor="#666666" borderopacity="1" fit-margin-bottom="0" fit-margin-left="0" fit-margin-right="0" fit-margin-top="0" gridtolerance="10" guidetolerance="10" id="namedview8" inkscape:current-layer="svg2" inkscape:cx="-49.141255" inkscape:cy="236.17459" inkscape:pageopacity="0" inkscape:pageshadow="2" inkscape:window-height="1002" inkscape:window-maximized="1" inkscape:window-width="1920" inkscape:window-x="0" inkscape:window-y="34" inkscape:zoom="0.734375" objecttolerance="10" pagecolor="#ffffff" showgrid="false">
	</sodipodi:namedview>
<path id="path6" inkscape:connector-curvature="0" class="st0" d="M75.6,28.4c-29.4,0-53.1,23.7-53.1,53.1c0,12.1,4,23.2,10.8,32.2
	c14.7-17.1,36.5-27.9,60.8-27.9c11.9,0,23.2,2.6,33.3,7.3c0.8-3.7,1.2-7.6,1.2-11.6C128.7,52.1,105,28.4,75.6,28.4L75.6,28.4z
	 M6.3,53C-9,53-21.3,65.4-21.3,80.7c0,5,1.3,9.6,3.5,13.6c9.2-5.2,19.9-8.2,31.2-8.2c1.1,0,2.1,0,3.2,0.1c-0.1-1.6-0.2-3.1-0.2-4.7
	c0-8.5,1.9-16.6,5.1-23.9C17.2,54.6,12,53,6.3,53L6.3,53z M137.3,72c-1.1,0-2.2,0.1-3.3,0.2c0.5,3,0.8,6.1,0.8,9.3
	c0,4.9-0.6,9.7-1.8,14.3c13.4,7.4,24.5,18.5,31.9,32c7.6-4,16.1-6.5,25.1-7.1C187.6,93.4,165.1,72,137.3,72L137.3,72z M94.2,91.8
	c-41.1,0-74.3,33.2-74.3,74.3c0,41.1,33.2,74.3,74.3,74.3s74.3-33.2,74.3-74.3C168.5,125.1,135.3,91.8,94.2,91.8z M13.5,92.1
	c-31.9,0-57.7,25.8-57.7,57.7c0,18.8,8.9,35.4,22.8,45.9c5.8-11.3,17.6-18.9,31.1-18.9c1.6,0,3.2,0.2,4.8,0.4
	c-0.5-3.6-0.7-7.3-0.7-11c0-17.9,5.8-34.4,15.7-47.8c-5.9-7.4-10.2-16.3-12-26C16.2,92.2,14.9,92.1,13.5,92.1L13.5,92.1z
	 M194.2,126.5c-9.7,0-18.7,2.5-26.8,6.7c4.5,10.1,7.1,21.2,7.1,33c0,22-8.9,42-23.2,56.5c10.6,11.7,25.9,19.1,42.9,19.1
	c31.9,0,57.7-25.8,57.7-57.7C251.9,152.2,226.1,126.5,194.2,126.5L194.2,126.5z M-49.8,134.1c-29.4,0-53.2,23.6-53.2,53
	c0,29.4,23.8,53.2,53.2,53.2c11.2,0,21.5-3.5,30.1-9.4c-3.5-5.5-5.6-12.1-5.6-19.1c0-3.6,0.5-7.1,1.6-10.4
	c-16-11.6-26.4-30.4-26.4-51.6c0-5.4,0.7-10.6,2-15.6C-48.8,134.2-49.3,134.1-49.8,134.1L-49.8,134.1z M262.4,179.7
	c-1.6,0-3.1,0.2-4.6,0.4c0.1,1.3,0.1,2.6,0.1,4c0,16.9-6.7,32.3-17.5,43.7c5.3,6.2,13.1,10.1,22,10.1c16.1,0,29.1-12.9,29.1-29
	C291.5,192.7,278.5,179.7,262.4,179.7L262.4,179.7z M9.7,182.8c-16.1,0-29,12.9-29,29c0,16.1,12.9,29.1,29,29.1
	c12.3,0,22.8-7.7,27.1-18.5c-10.4-10.6-17.8-24.1-21.1-39C13.7,183,11.8,182.8,9.7,182.8L9.7,182.8z"/>
<path class="st1" d="M108,188.3c0.7,0.3,1.6,0.9,2.8,1.5l17.7,10.2l40.8-23.6l0-23.6c0-0.6,0-1.6,0-3.2l0-20.4l-38.9-22.5
	l-42.6,24.6c0,14.2,0,19,0,20.6l0,0l0,24.5L108,188.3L108,188.3z"/>
<path class="st1" d="M64.4,120.2L64.4,120.2l-24.3-14l-40,23.1l0,23.6l0,23.6l20.4,11.8l0,0.1c0.7,0.3,1.6,0.9,2.8,1.5L41,200
	l40.7-23.5v-46.4C71.5,124.2,66.7,121.5,64.4,120.2z"/>
<path class="st1" d="M126.6,54.9L85.8,31.3L45,54.9l0,23.6l0,22.6l39.8,23l41.9-24.2l0-21.4c0-0.6,0-1.6,0-3.2L126.6,54.9z"/>
</svg>
